<svg xmlns="http://www.w3.org/2000/svg"  viewBox="0 0 64 64" width="64px" height="64px"><linearGradient id="EpJGLD_qlpmV3_GA7xjyja" x1="10" x2="10" y1="19" y2="40.775" gradientUnits="userSpaceOnUse" spreadMethod="reflect"><stop offset="0" stop-color="#1a6dff"/><stop offset="1" stop-color="#c822ff"/></linearGradient><path fill="url(#EpJGLD_qlpmV3_GA7xjyja)" d="M10.956,22.773c-0.698,0.989-1.816,1.769-2.935,1.657c-0.139-1.336,0.409-2.758,1.049-3.634 c0.698-1.016,1.921-1.742,2.911-1.796C12.098,20.392,11.644,21.757,10.956,22.773"/><linearGradient id="EpJGLD_qlpmV3_GA7xjyjb" x1="8.494" x2="8.494" y1="19.333" y2="40.751" gradientUnits="userSpaceOnUse" spreadMethod="reflect"><stop offset="0" stop-color="#1a6dff"/><stop offset="1" stop-color="#c822ff"/></linearGradient><path fill="url(#EpJGLD_qlpmV3_GA7xjyjb)" d="M11.934,41c-0.809,0-1.374-0.229-1.828-0.414C9.7,40.42,9.378,40.29,8.851,40.29 c-0.55,0-0.868,0.13-1.271,0.295c-0.411,0.168-0.921,0.377-1.636,0.404c0,0-0.001,0-0.001,0c-1.944,0-3.174-1.801-3.834-2.769 c-1.57-2.275-3.187-6.912-1.195-10.343c0.985-1.742,2.837-2.873,4.713-2.873c0.913,0,1.698,0.321,2.329,0.58 c0.265,0.108,0.627,0.257,0.754,0.26c0.117-0.005,0.461-0.137,0.713-0.234C10.095,25.354,11.015,25,12.15,25 c0.445,0,2.737,0.108,4.184,2.25c0.297,0.44,0.199,1.036-0.224,1.356c-0.534,0.358-1.588,1.226-1.575,2.73 c0.016,2.048,1.75,2.758,1.825,2.788c0.477,0.188,0.742,0.711,0.603,1.205c-0.018,0.062-0.438,1.528-1.403,2.936 C14.7,39.526,13.695,41,11.934,41z M8.851,38.29c0.918,0,1.522,0.246,2.008,0.443C11.241,38.888,11.516,39,11.934,39 c0.655,0,1.186-0.707,1.921-1.785c0.423-0.618,0.722-1.236,0.914-1.694c-0.916-0.616-2.216-1.89-2.234-4.166 c-0.016-1.723,0.792-2.921,1.53-3.654C13.229,27.024,12.28,27,12.15,27c-0.764,0-1.426,0.254-2.009,0.479 c-0.491,0.188-0.955,0.367-1.43,0.367c-0.512,0-0.998-0.199-1.513-0.41c-0.517-0.212-1.052-0.431-1.571-0.431 c-1.149,0-2.346,0.75-2.978,1.867c-1.439,2.479-0.217,6.295,1.109,8.217c0.675,0.989,1.4,1.901,2.149,1.901 c0.323-0.013,0.571-0.114,0.915-0.255C7.306,38.537,7.907,38.29,8.851,38.29z"/><linearGradient id="EpJGLD_qlpmV3_GA7xjyjc" x1="26.5" x2="26.5" y1="20" y2="41" gradientUnits="userSpaceOnUse" spreadMethod="reflect"><stop offset="0" stop-color="#6dc7ff"/><stop offset="1" stop-color="#e6abff"/></linearGradient><path fill="url(#EpJGLD_qlpmV3_GA7xjyjc)" d="M26.958,20H19v21h3v-7h4.849C31.011,34,34,31.095,34,27S31.066,20,26.958,20z M26,31h-4v-8h4 c2.856,0,4.686,1.347,4.686,4S28.87,31,26,31z"/><linearGradient id="EpJGLD_qlpmV3_GA7xjyjd" x1="40.5" x2="40.5" y1="26" y2="41" gradientUnits="userSpaceOnUse" spreadMethod="reflect"><stop offset="0" stop-color="#6dc7ff"/><stop offset="1" stop-color="#e6abff"/></linearGradient><path fill="url(#EpJGLD_qlpmV3_GA7xjyjd)" d="M40.863,26c-3.452,0-6.004,1.903-6.098,4.52h2.928c0.241-1.244,1.437-2.059,3.076-2.059 c1.987,0,3.111,0.893,3.111,2.539l0.001,1.136l-4.065,0.211C36.043,32.567,34,34.057,34,36.648C34,39.264,36.109,41,39.131,41 c2.041,0,3.936-0.997,4.794-2.577h0.067L44,41h3V30.794C47.001,27.878,44.584,26,40.863,26z M43.871,35.365 c0,1.891-1.666,3.238-3.868,3.238c-1.732,0-2.835-0.803-2.835-2.033c0-1.269,1.061-2.007,3.09-2.124l3.622-0.265L43.871,35.365z"/><linearGradient id="EpJGLD_qlpmV3_GA7xjyje" x1="55.5" x2="55.5" y1="26" y2="46" gradientUnits="userSpaceOnUse" spreadMethod="reflect"><stop offset="0" stop-color="#6dc7ff"/><stop offset="1" stop-color="#e6abff"/></linearGradient><path fill="url(#EpJGLD_qlpmV3_GA7xjyje)" d="M63,26l-5.94,15.33c-1.35,3.51-2.9,4.67-6.2,4.67c-0.16,0-0.55-0.01-0.86-0.03v-2.42 c0.2,0.01,0.42,0.02,0.57,0.02c1.49,0,2.33-0.58,2.85-2.08l0.31-0.89L48,26h3.53l3.97,11.62L59.56,26H63z"/></svg>